# xmcd
#
# Track frame offsets: 
#        150
#        18897
#        43755
#        72502
#        94427
#        117080
#        141775
#        155052
#        172222
#        196217
#        217757
#        241295
#        260502
#
# Disc length: 3975 seconds
#
# Revision: 4
# Processed by: cddbd v1.5.2PL0 Copyright (c) Steve Scherf et al.
# Submitted via: ExactAudioCopyFreeDBPlugin 1.0
#
DISCID=bc0f850d
DTITLE=Willi Michl - Ois is Blues
DYEAR=1979
DGENRE=Ethnic
TTITLE0=Sonnenuntergang
TTITLE1=Ois is Blues
TTITLE2=Der Falk
TTITLE3=Isarflimmern
TTITLE4=Frühlingsreggea
TTITLE5=Herbstlied
TTITLE6=Wakantanka
TTITLE7=Teufelstanz
TTITLE8=Der tausendjährige Eskimo
TTITLE9=Die 5 Dimensionen
TTITLE10=Katmandu
TTITLE11=Das Land Nepal
TTITLE12=Epilog
EXTD=
EXTT0=
EXTT1=
EXTT2=
EXTT3=
EXTT4=
EXTT5=
EXTT6=
EXTT7=
EXTT8=
EXTT9=
EXTT10=
EXTT11=
EXTT12=
PLAYORDER=
